<?xml version="1.0" standalone="no"?>
<!DOCTYPE svg PUBLIC "-//W3C//DTD SVG 20010904//EN"
 "http://www.w3.org/TR/2001/REC-SVG-20010904/DTD/svg10.dtd">
<svg version="1.0" xmlns="http://www.w3.org/2000/svg"
 width="252.000000pt" height="252.000000pt" viewBox="0 0 252.000000 252.000000"
 preserveAspectRatio="xMidYMid meet">
<metadata>
Created by potrace 1.11, written by Peter Selinger 2001-2013
</metadata>
<g transform="translate(0.000000,252.000000) scale(0.100000,-0.100000)"
fill="#000000" stroke="none">
<path d="M10 1260 l0 -1250 1250 0 1250 0 0 1250 0 1250 -1250 0 -1250 0 0
-1250z m1408 1026 c41 -21 65 -60 98 -158 l25 -77 66 -30 c36 -17 96 -51 133
-76 l68 -45 72 15 c145 31 195 15 256 -81 50 -78 94 -174 94 -204 -1 -39 -21
-75 -80 -144 l-55 -65 0 -161 -1 -161 54 -62 c58 -66 82 -111 82 -151 0 -28
-77 -181 -116 -234 -48 -63 -107 -75 -233 -48 -72 16 -78 15 -141 -30 -25 -17
-77 -48 -116 -67 -38 -19 -75 -41 -81 -49 -6 -7 -20 -42 -32 -78 -48 -147 -75
-165 -251 -165 -179 0 -202 16 -256 177 l-25 76 -76 37 c-42 19 -97 50 -122
68 -63 46 -70 47 -142 31 -96 -20 -150 -18 -190 9 -39 26 -145 194 -155 245
-10 53 11 104 74 175 l58 65 -1 163 0 162 -54 60 c-66 75 -85 117 -77 171 8
49 110 221 147 249 38 28 105 32 194 12 l77 -17 67 46 c36 25 96 59 133 76
l67 31 22 67 c57 173 88 194 279 188 74 -2 116 -8 138 -20z"/>
<path d="M1161 2091 c-7 -5 -28 -51 -46 -102 -18 -51 -38 -96 -46 -100 -8 -4
-48 -23 -89 -42 -41 -20 -100 -55 -130 -77 -45 -35 -59 -41 -85 -35 -94 19
-163 28 -177 23 -19 -8 -98 -143 -98 -168 0 -11 28 -51 61 -90 l62 -71 0 -174
0 -173 -61 -69 c-34 -37 -62 -76 -62 -87 0 -25 80 -164 99 -171 12 -5 163 16
216 30 6 1 78 189 159 416 206 572 203 565 238 594 42 35 82 33 122 -7 27 -28
60 -110 206 -517 96 -265 179 -484 184 -486 53 -14 205 -35 217 -30 19 7 99
145 99 170 0 10 -28 50 -62 88 l-61 69 -1 172 -1 171 62 73 c35 40 63 81 63
90 0 10 -19 51 -42 92 -50 88 -54 89 -178 65 l-86 -17 -76 54 c-41 30 -102 65
-134 78 -33 13 -64 28 -70 34 -7 6 -24 48 -39 94 -15 45 -33 89 -42 97 -16 17
-177 21 -202 6z"/>
<path d="M1246 1532 c-3 -6 -40 -110 -82 -232 -41 -122 -78 -228 -81 -236 -4
-12 24 -14 175 -14 l181 0 -82 242 c-76 223 -95 265 -111 240z"/>
<path d="M989 784 l-36 -105 66 -32 66 -32 30 -85 c17 -47 34 -91 38 -98 11
-17 201 -17 214 1 6 6 22 49 37 94 30 91 37 99 109 128 28 11 50 25 49 30 -1
6 -17 54 -34 108 l-32 97 -236 0 -235 0 -36 -106z"/>
</g>
</svg>
